# xmcd CD database file
#
# Track frame offsets:
#	150
#	16470
#	29320
#	46375
#	53782
#	64775
#	77160
#	96277
#	110312
#	124490
#	133697
#	149497
#	164240
#	179037
#
# Disc length: 2553 seconds
#
# Revision: 0
# Processed by: cddbd v1.5.2PL0 Copyright (c) Steve Scherf et al.
# Submitted via: CDex 1.51
#
DISCID=d309f70e
DTITLE=Melody Sextett - Wir Sind Immer Auf Achse
DYEAR=1996
DGENRE=Schlager
TTITLE0=Wir Sind Immer Auf Achse
TTITLE1=Ein Sträußerl Vergißmeinicht
TTITLE2=Hey, Lady Sunshine
TTITLE3=Cajun Time
TTITLE4=Musik Ist Die Schönste Sprache
TTITLE5=I Hob Koan Bock
TTITLE6=Laß Mich Noch Einmal Weinen
TTITLE7=Holz Vor Der Hütt´n
TTITLE8=Meine Heimat, Wie Du Mir Fehlst
TTITLE9=Boil The Cabbage
TTITLE10=Bleib Bei Mir My Love
TTITLE11=Wieder Einmal Auf Diät
TTITLE12=Mein Führerschein
TTITLE13=Arrividerci Goodbye
EXTD=YEAR: 1996
EXTT0=
EXTT1=
EXTT2=
EXTT3=
EXTT4=
EXTT5=
EXTT6=
EXTT7=
EXTT8=
EXTT9=
EXTT10=
EXTT11=
EXTT12=
EXTT13=
PLAYORDER=
